# xmcd
#
# Track frame offsets:
#	150
#	10755
#	32057
#	45462
#	64555
#	81685
#	95930
#	112880
#	125757
#	141742
#	158292
#	169700
#	187902
#
# Disc length: 2625 seconds
#
# Revision: 0
# Processed by: cddbd v1.5.1PL2 Copyright (c) Steve Scherf et al.
# Submitted via: audiograbber 1.83.01
#
DISCID=ab0a3f0d
DTITLE=Flatt&Alvis - Fields Of Fire
DYEAR=2006
DGENRE=Bluegrass
TTITLE0=Rollin'
TTITLE1=Not With Me
TTITLE2=Yesterday's Gone
TTITLE3=Stone
TTITLE4=Fallen Rain
TTITLE5=Carry On
TTITLE6=Old House
TTITLE7=Calling Of The Crows
TTITLE8=Sister Pain
TTITLE9=Where You Were
TTITLE10=Your Time To Fly
TTITLE11=Fields Of Fire
TTITLE12=Bonus
EXTD=
EXTT0=
EXTT1=
EXTT2=
EXTT3=
EXTT4=
EXTT5=
EXTT6=
EXTT7=
EXTT8=
EXTT9=
EXTT10=
EXTT11=
EXTT12=
PLAYORDER=
